<?xml version="1.0" encoding="UTF-8" standalone="no"?>
<svg
   xmlns:dc="http://purl.org/dc/elements/1.1/"
   xmlns:cc="http://creativecommons.org/ns#"
   xmlns:rdf="http://www.w3.org/1999/02/22-rdf-syntax-ns#"
   xmlns:svg="http://www.w3.org/2000/svg"
   xmlns="http://www.w3.org/2000/svg"
   xmlns:sodipodi="http://sodipodi.sourceforge.net/DTD/sodipodi-0.dtd"
   xmlns:inkscape="http://www.inkscape.org/namespaces/inkscape"
   width="24"
   height="24"
   viewBox="0 0 24 24"
   version="1.1"
   id="svg6"
   sodipodi:docname="settings_backup_restore-24px.svg"
   inkscape:version="0.92.3 (2405546, 2018-03-11)">
  <metadata
     id="metadata12">
    <rdf:RDF>
      <cc:Work
         rdf:about="">
        <dc:format>image/svg+xml</dc:format>
        <dc:type
           rdf:resource="http://purl.org/dc/dcmitype/StillImage" />
      </cc:Work>
    </rdf:RDF>
  </metadata>
  <defs
     id="defs10" />
  <sodipodi:namedview
     pagecolor="#ffffff"
     bordercolor="#666666"
     borderopacity="1"
     objecttolerance="10"
     gridtolerance="10"
     guidetolerance="10"
     inkscape:pageopacity="0"
     inkscape:pageshadow="2"
     inkscape:window-width="2094"
     inkscape:window-height="1333"
     id="namedview8"
     showgrid="false"
     inkscape:zoom="9.8333333"
     inkscape:cx="12"
     inkscape:cy="12"
     inkscape:window-x="293"
     inkscape:window-y="11"
     inkscape:window-maximized="0"
     inkscape:current-layer="svg6" />
  <path
     d="M0 0h24v24H0z"
     fill="none"
     id="path2" />
  <path
     d="m 15.5,12 c 0,-1.1 -0.9,-2 -2,-2 -1.1,0 -2,0.9 -2,2 0,1.1 0.9,2 2,2 1.1,0 2,-0.9 2,-2 z m -2,-9 c -4.97,0 -9,4.03 -9,9 h -3 l 4,4 4,-4 h -3 c 0,-3.87 3.13,-7 7,-7 3.87,0 7,3.13 7,7 0,3.87 -3.13,7 -7,7 -1.51,0 -2.91,-0.49 -4.06,-1.3 L 8.02,19.14 C 9.54,20.3 11.44,21 13.5,21 c 4.97,0 9,-4.03 9,-9 0,-4.97 -4.03,-9 -9,-9 z"
     id="path4"
     style="fill:#ffffff;fill-opacity:1"
     inkscape:connector-curvature="0" />
</svg>
